<?xml version="1.0" encoding="UTF-8"?>
<svg width="1023px" height="295px" viewBox="0 0 1023 295" version="1.1" xmlns="http://www.w3.org/2000/svg" xmlns:xlink="http://www.w3.org/1999/xlink">
    <title>Group 2</title>
    <defs>
        <radialGradient cx="67.0886737%" cy="8.60200841%" fx="67.0886737%" fy="8.60200841%" r="94.3899965%" gradientTransform="translate(0.670887,0.086020),scale(0.924869,1.000000),rotate(136.730720),translate(-0.670887,-0.086020)" id="radialGradient-1">
            <stop stop-color="#F6417A" offset="0%"></stop>
            <stop stop-color="#7A228F" offset="100%"></stop>
        </radialGradient>
    </defs>
    <g id="Page-1" stroke="none" stroke-width="1" fill="none" fill-rule="evenodd">
        <g id="Artboard" transform="translate(-1.000000, -365.000000)">
            <g id="Group-2" transform="translate(1.000000, 365.000000)">
                <g id="brainrot-copy" transform="translate(382.000000, 42.000000)" fill-rule="nonzero">
                    <g id="Group-4" fill="#F6417A">
                        <path d="M0,187.968 L0,0 L26.928,0 L26.928,66.264 L27.456,66.264 C30.448,61.864 34.012,58.476 38.148,56.1 C42.284,53.724 46.992,52.536 52.272,52.536 C58.784,52.536 63.844,53.68 67.452,55.968 C71.06,58.256 74.008,61.16 76.296,64.68 C78.056,67.496 79.2,71.192 79.728,75.768 C80.256,80.344 80.52,87.472 80.52,97.152 L80.52,148.104 C80.52,155.496 80.168,161.392 79.464,165.792 C78.76,170.192 77.616,173.888 76.032,176.88 C71.456,185.328 63.624,189.552 52.536,189.552 C45.848,189.552 40.744,188.232 37.224,185.592 C33.704,182.952 30.272,179.696 26.928,175.824 L26.928,187.968 L0,187.968 Z M53.592,95.304 C53.592,91.08 52.668,87.384 50.82,84.216 C48.972,81.048 45.496,79.464 40.392,79.464 C36.52,79.464 33.308,80.828 30.756,83.556 C28.204,86.284 26.928,89.76 26.928,93.984 L26.928,145.992 C26.928,150.92 28.16,154.924 30.624,158.004 C33.088,161.084 36.344,162.624 40.392,162.624 C44.968,162.624 48.312,160.952 50.424,157.608 C52.536,154.264 53.592,149.864 53.592,144.408 L53.592,95.304 Z" id="Shape"></path>
                        <path d="M102.696,187.968 L102.696,54.12 L129.624,54.12 L129.624,68.376 C135.08,63.448 140.448,59.576 145.728,56.76 C151.008,53.944 157.52,52.536 165.264,52.536 L165.264,81.048 C162.624,79.992 159.896,79.464 157.08,79.464 C154.264,79.464 151.228,79.948 147.972,80.916 C144.716,81.884 141.768,83.512 139.128,85.8 C136.312,88.088 134.024,91.08 132.264,94.776 C130.504,98.472 129.624,103.048 129.624,108.504 L129.624,187.968 L102.696,187.968 Z" id="Path"></path>
                        <path d="M227.04,187.968 L227.04,174.24 L226.512,174.24 C222.992,179.168 219.428,182.952 215.82,185.592 C212.212,188.232 207.152,189.552 200.64,189.552 C197.472,189.552 194.26,189.068 191.004,188.1 C187.748,187.132 184.624,185.328 181.632,182.688 C178.64,180.224 176.22,176.66 174.372,171.996 C172.524,167.332 171.6,161.304 171.6,153.912 C171.6,146.344 172.216,139.7 173.448,133.98 C174.68,128.26 176.968,123.464 180.312,119.592 C183.48,115.896 187.792,113.124 193.248,111.276 C198.704,109.428 205.656,108.504 214.104,108.504 C214.984,108.504 215.952,108.504 217.008,108.504 C218.064,108.504 219.032,108.592 219.912,108.768 C220.792,108.944 221.848,109.032 223.08,109.032 C224.312,109.032 225.632,109.12 227.04,109.296 L227.04,95.304 C227.04,90.728 226.072,86.944 224.136,83.952 C222.2,80.96 218.68,79.464 213.576,79.464 C210.056,79.464 206.844,80.608 203.94,82.896 C201.036,85.184 199.144,88.528 198.264,92.928 L172.128,92.928 C172.832,80.96 176.88,71.28 184.272,63.888 C187.792,60.368 192.016,57.596 196.944,55.572 C201.872,53.548 207.416,52.536 213.576,52.536 C219.208,52.536 224.488,53.416 229.416,55.176 C234.344,56.936 238.656,59.576 242.352,63.096 C245.872,66.616 248.688,71.016 250.8,76.296 C252.912,81.576 253.968,87.736 253.968,94.776 L253.968,187.968 L227.04,187.968 Z M227.04,130.416 C224.048,129.888 221.584,129.624 219.648,129.624 C213.84,129.624 208.868,130.988 204.732,133.716 C200.596,136.444 198.528,141.416 198.528,148.632 C198.528,153.736 199.76,157.872 202.224,161.04 C204.688,164.208 208.12,165.792 212.52,165.792 C217.096,165.792 220.66,164.296 223.212,161.304 C225.764,158.312 227.04,154.088 227.04,148.632 L227.04,130.416 Z" id="Shape"></path>
                        <path d="M273.768,187.968 L273.768,54.12 L300.696,54.12 L300.696,187.968 L273.768,187.968 Z M273.768,26.928 L273.768,0 L300.696,0 L300.696,26.928 L273.768,26.928 Z" id="Shape"></path>
                        <path d="M322.872,187.968 L322.872,54.12 L349.8,54.12 L349.8,67.056 L350.328,67.056 C353.144,62.832 356.532,59.356 360.492,56.628 C364.452,53.9 369.512,52.536 375.672,52.536 C379.016,52.536 382.36,53.108 385.704,54.252 C389.048,55.396 392.04,57.288 394.68,59.928 C397.32,62.568 399.432,65.956 401.016,70.092 C402.6,74.228 403.392,79.288 403.392,85.272 L403.392,187.968 L376.464,187.968 L376.464,95.304 C376.464,90.376 375.32,86.504 373.032,83.688 C370.744,80.872 367.488,79.464 363.264,79.464 C358.16,79.464 354.64,81.048 352.704,84.216 C350.768,87.384 349.8,91.96 349.8,97.944 L349.8,187.968 L322.872,187.968 Z" id="Path"></path>
                    </g>
                    <g id="Group-5" transform="translate(425.568000, 13.464000)" fill="#000000">
                        <path d="M0,174.504 L0,40.656 L26.928,40.656 L26.928,54.912 C32.384,49.984 37.752,46.112 43.032,43.296 C48.312,40.48 54.824,39.072 62.568,39.072 L62.568,67.584 C59.928,66.528 57.2,66 54.384,66 C51.568,66 48.532,66.484 45.276,67.452 C42.02,68.42 39.072,70.048 36.432,72.336 C33.616,74.624 31.328,77.616 29.568,81.312 C27.808,85.008 26.928,89.584 26.928,95.04 L26.928,174.504 L0,174.504 Z" id="Path"></path>
                        <path d="M71.016,85.536 C71.016,80.08 71.368,75.064 72.072,70.488 C72.776,65.912 74.096,61.864 76.032,58.344 C79.2,52.536 83.732,47.872 89.628,44.352 C95.524,40.832 102.696,39.072 111.144,39.072 C119.592,39.072 126.764,40.832 132.66,44.352 C138.556,47.872 143.088,52.536 146.256,58.344 C148.192,61.864 149.512,65.912 150.216,70.488 C150.92,75.064 151.272,80.08 151.272,85.536 L151.272,129.624 C151.272,135.08 150.92,140.096 150.216,144.672 C149.512,149.248 148.192,153.296 146.256,156.816 C143.088,162.624 138.556,167.288 132.66,170.808 C126.764,174.328 119.592,176.088 111.144,176.088 C102.696,176.088 95.524,174.328 89.628,170.808 C83.732,167.288 79.2,162.624 76.032,156.816 C74.096,153.296 72.776,149.248 72.072,144.672 C71.368,140.096 71.016,135.08 71.016,129.624 L71.016,85.536 Z M97.944,133.848 C97.944,138.952 99.132,142.78 101.508,145.332 C103.884,147.884 107.096,149.16 111.144,149.16 C115.192,149.16 118.404,147.884 120.78,145.332 C123.156,142.78 124.344,138.952 124.344,133.848 L124.344,81.312 C124.344,76.208 123.156,72.38 120.78,69.828 C118.404,67.276 115.192,66 111.144,66 C107.096,66 103.884,67.276 101.508,69.828 C99.132,72.38 97.944,76.208 97.944,81.312 L97.944,133.848 Z" id="Shape"></path>
                        <path d="M171.072,40.656 L171.072,0 L198,0 L198,40.656 L214.632,40.656 L214.632,61.776 L198,61.776 L198,135.96 C198,139.128 198.308,141.592 198.924,143.352 C199.54,145.112 200.552,146.432 201.96,147.312 C203.368,148.192 205.084,148.72 207.108,148.896 C209.132,149.072 211.64,149.16 214.632,149.16 L214.632,174.504 L203.544,174.504 C197.384,174.504 192.236,173.536 188.1,171.6 C183.964,169.664 180.664,167.2 178.2,164.208 C175.736,161.216 173.932,157.828 172.788,154.044 C171.644,150.26 171.072,146.608 171.072,143.088 L171.072,61.776 L157.608,61.776 L157.608,40.656 L171.072,40.656 Z" id="Path"></path>
                    </g>
                </g>
                <g id="logo2">
                    <path d="M239.086859,38.4193425 C257.829719,52.3016974 271.513104,71.4142896 277.626508,90.6163177 C285.15523,114.263822 284.402717,135.269693 278.433466,156.144423 L278.139907,157.157109 L277.727647,158.543248 C277.225191,160.20493 276.743986,161.685439 275.980103,163.941543 L275.788589,164.503059 L275.787068,164.148144 C275.774427,160.161297 275.922618,155.473076 276.244391,150.086899 L276.398615,147.649973 C276.411191,147.444468 276.417,147.337594 276.419178,147.185093 L276.422149,146.877139 C276.418121,146.739157 276.39774,146.534337 276.332518,145.878915 L276.273529,145.532643 C276.233358,145.334482 276.175089,145.135507 276.000282,144.538582 L275.85505,144.15024 C275.739221,143.859189 275.634769,143.671631 275.243075,142.968289 L275.056341,142.687434 L274.566107,142.057909 L273.864671,141.34899 L272.879128,140.609747 L270.794941,139.699729 L267.484511,139.564364 L265.479209,140.226963 L264.522462,140.790293 L263.820537,141.339851 L263.308677,141.836288 L262.477933,142.964735 C262.268672,143.257039 262.154274,143.433209 262.066606,143.598172 L262.011373,143.707638 L261.906721,143.944242 C261.888429,143.987942 261.869215,144.034543 261.84833,144.085197 L261.368915,145.669782 C261.331449,145.812046 261.334987,145.836309 261.34112,145.878365 L261.194042,146.9902 C260.93056,148.981504 260.586019,151.011043 260.10732,153.063374 L260.013169,153.459326 C259.569656,155.28904 259.069291,156.862533 258.560465,158.039077 L258.456824,158.270902 L257.700715,158.054849 C257.100978,157.880513 256.379764,157.668083 256.223177,157.624026 C254.949611,157.265702 254.03748,157.075053 252.884356,157.039529 C250.273055,156.959084 247.683274,157.89319 245.825268,160.241993 C244.417971,162.021031 243.950219,163.855093 243.875659,165.922541 C243.84136,166.873578 243.899492,167.879136 244.037345,169.12799 L244.16302,170.17136 C244.255165,170.884585 244.371834,171.70056 244.530809,172.754707 L245.571454,179.50815 L245.614012,179.798981 C245.692309,180.354957 245.744947,180.855357 245.777624,181.300215 L245.804864,181.749529 L245.729595,181.686471 C244.55942,180.684306 243.288757,179.065697 242.546045,177.135968 C239.330116,168.78028 235.117873,160.233846 229.915379,151.492124 L197.68909,97.3424638 L216.15119,157.590869 C216.973852,160.275508 217.883612,163.749384 218.871494,167.99242 C221.766579,180.427049 220.054581,189.882949 215.36389,195.773022 C213.623273,197.958706 211.573151,199.466701 209.591895,200.189346 C208.177975,200.705059 207.09865,200.721823 206.631383,200.515963 C202.691877,198.780372 197.406773,191.132571 191.904428,177.598031 L183.37717,156.394998 L177.343368,177.802461 C174.801563,186.820585 171.742713,193.569846 168.303716,198.029267 L168.062649,198.339717 C167.616298,198.910532 167.190408,199.432797 166.786131,199.908589 L166.433949,200.315215 L166.699286,199.085608 L167.150584,197.04194 C168.276795,191.872513 168.443767,190.267232 167.896228,187.420915 C166.480522,180.061523 159.906915,177.725273 152.71448,180.024871 C143.065696,183.109825 135.362812,190.230332 129.118873,200.48126 C124.665399,207.792709 121.197074,216.171354 117.926441,226.459332 L117.629633,227.399886 C115.735811,233.445282 115.161526,238.791312 114.671692,250.121732 L114.547972,253.016505 L114.484755,254.349874 C114.332044,257.400609 114.141994,260.031455 113.895673,262.312019 L113.822641,262.961849 L113.792647,262.542971 C113.595984,259.706911 113.449944,256.499661 113.360268,252.934839 L112.575447,217.901097 L102.949537,239.818712 L102.95041,239.807125 C102.917834,238.034564 103.009368,236.177541 103.239154,234.255953 L103.331832,233.532371 C104.858531,222.352517 101.805934,214.168747 94.1992978,209.778697 C88.9361959,206.741181 83.2093977,206.064134 73.6197405,206.25367 L67.873778,206.393955 C64.3158664,206.464169 62.4634699,206.41936 60.5619242,206.210232 C55.3639111,205.638563 51.8471345,201.791905 49.6607678,192.870215 L34.7152633,131.883576 L34.7151905,178.607863 L34.6583511,178.577586 C29.9867042,176.190009 24.7976856,178.695613 23.3030767,183.392387 C22.8731767,184.743339 22.7775169,185.920376 22.8069976,187.511614 L22.8159271,187.886444 C22.8230849,188.136378 22.8333029,188.394971 22.8468093,188.673424 L22.9275414,190.052756 L23.0674287,192.182914 C23.1011124,192.73496 23.1251143,193.193653 23.1438291,193.651458 L23.1627782,194.179351 L23.1789478,194.945089 L23.1805826,195.280967 L23.1642403,195.250385 C22.6999852,194.368249 22.2315303,193.289822 21.8034187,192.026578 C17.9020865,180.514777 15.567486,169.271685 15.2090093,156.642421 C14.7341268,139.912141 17.9485511,122.608905 25.7481793,104.596949 C34.8539806,83.5686003 51.5739617,62.4547767 72.8833833,46.3558747 C97.313623,27.8992482 126.384966,16.8459919 158.276944,15.3339022 C189.849088,13.8369767 217.243457,22.240496 239.086859,38.4193425 Z" id="Path" fill="url(#radialGradient-1)" fill-rule="nonzero"></path>
                    <path d="M157.558811,0.187518302 C122.52711,1.84847121 90.5453856,14.0082877 63.742945,34.2570711 C40.3590366,51.9232123 21.9870669,75.1231505 11.833353,98.5714804 C3.1387932,118.650134 -0.485171807,138.157926 0.0517153589,157.072654 C0.457606849,171.372358 3.09076999,184.053284 7.4423121,196.893535 C9.73646235,203.662967 13.3986527,208.829531 18.1403851,211.370626 C24.3099076,214.676873 31.1743233,212.908009 35.3591618,207.082761 L35.5727516,206.777358 C36.1992965,205.856726 36.6985725,204.895652 37.0908525,203.876689 L37.2076741,203.560183 L37.2368551,203.632109 C41.4873506,213.949328 48.7752923,220.168784 58.9042752,221.282752 L59.432886,221.338356 C62.4047353,221.636256 65.0388355,221.644492 70.5814128,221.497766 L72.908192,221.436477 L73.9371992,221.413735 C80.7942021,221.27823 84.5607917,221.723532 86.6197267,222.911814 C88.2363924,223.844847 89.0008534,225.749578 88.3965942,230.789911 L88.2390186,232.004372 C86.362845,246.844224 90.8172832,261.914494 98.5819375,265.880026 L98.8487852,266.01064 L98.9685943,267.334234 C99.4924027,272.843535 100.262387,277.146464 101.313516,280.325955 C104.495485,289.950874 113.325886,293.410588 120.599859,285.747137 C124.468682,281.671162 126.781746,276.43582 128.093816,269.920331 L128.23148,269.21661 C129.054224,264.882117 129.400623,260.584327 129.721944,253.108423 L129.866269,249.755225 C130.279344,240.672485 130.767022,236.293488 132.02613,232.170471 L132.300454,231.295537 L132.756606,229.875515 C137.949162,213.927456 143.925576,202.933217 151.448641,197.485407 L151.550125,197.412372 L151.510618,197.606975 C150.877615,200.724145 150.583208,203.13443 150.689798,205.524296 L150.709907,205.89644 C150.914203,209.109107 151.902842,211.9914 153.975237,214.302704 L154.188556,214.532797 L154.359944,214.752197 C154.777684,215.269981 155.278439,215.788488 155.877832,216.291678 C158.976593,218.893093 163.272495,219.708487 167.74545,218.042692 C171.835804,216.519382 175.900863,213.008321 180.311296,207.289218 L180.658707,206.832507 C182.272142,204.682325 183.77626,202.268081 185.176512,199.588939 L185.45738,199.043385 L185.619096,199.314863 C190.206202,206.971527 195.07679,211.995206 200.517978,214.39238 C209.088049,218.168017 220.117023,214.145305 227.225477,205.219261 L227.499663,204.8703 C230.400832,201.127752 232.550024,196.736661 233.875168,191.805608 L233.983099,191.390608 L234.182455,191.59661 C237.633004,195.119825 241.934567,197.468182 246.311115,197.874099 C251.287001,198.335603 255.913185,196.20679 258.591157,191.804193 C260.828693,188.125674 261.419259,183.388234 260.638013,177.748342 L260.054668,173.934693 L260.253959,173.938751 C260.454596,173.939617 260.653307,173.935212 260.850086,173.92565 L260.966367,173.917634 L261.008502,174.334442 C261.927643,183.320801 264.375638,188.382283 269.022076,190.440814 C272.453371,191.960994 275.959381,191.290203 278.828943,189.299341 C280.555265,188.101642 282.031196,186.457303 283.417814,184.398908 C285.486341,181.32824 287.4449,177.143256 289.115588,172.390538 L290.207108,169.204122 C291.37468,165.765774 291.950888,163.959783 292.779522,161.11991 C299.72339,137.322073 300.702965,113.115453 292.075304,86.0162139 C284.994629,63.7760129 269.412069,42.0107049 248.112009,26.2342973 C223.470362,7.98286254 192.636905,-1.47563423 157.558811,0.187518302 Z M239.086859,38.4193425 C257.829719,52.3016974 271.513104,71.4142896 277.626508,90.6163177 C285.15523,114.263822 284.402717,135.269693 278.433466,156.144423 L278.139907,157.157109 L277.727647,158.543248 C277.225191,160.20493 276.743986,161.685439 275.980103,163.941543 L275.788589,164.503059 L275.787068,164.148144 C275.774427,160.161297 275.922618,155.473076 276.244391,150.086899 L276.398615,147.649973 C276.411191,147.444468 276.417,147.337594 276.419178,147.185093 L276.422149,146.877139 C276.418121,146.739157 276.39774,146.534337 276.332518,145.878915 L276.273529,145.532643 C276.233358,145.334482 276.175089,145.135507 276.000282,144.538582 L275.85505,144.15024 C275.739221,143.859189 275.634769,143.671631 275.243075,142.968289 L275.056341,142.687434 L274.566107,142.057909 L273.864671,141.34899 L272.879128,140.609747 L270.794941,139.699729 L267.484511,139.564364 L265.479209,140.226963 L264.522462,140.790293 L263.820537,141.339851 L263.308677,141.836288 L262.477933,142.964735 C262.268672,143.257039 262.154274,143.433209 262.066606,143.598172 L262.011373,143.707638 L261.906721,143.944242 C261.888429,143.987942 261.869215,144.034543 261.84833,144.085197 L261.368915,145.669782 C261.331449,145.812046 261.334987,145.836309 261.34112,145.878365 L261.194042,146.9902 C260.93056,148.981504 260.586019,151.011043 260.10732,153.063374 L260.013169,153.459326 C259.569656,155.28904 259.069291,156.862533 258.560465,158.039077 L258.456824,158.270902 L257.700715,158.054849 C257.100978,157.880513 256.379764,157.668083 256.223177,157.624026 C254.949611,157.265702 254.03748,157.075053 252.884356,157.039529 C250.273055,156.959084 247.683274,157.89319 245.825268,160.241993 C244.417971,162.021031 243.950219,163.855093 243.875659,165.922541 C243.84136,166.873578 243.899492,167.879136 244.037345,169.12799 L244.16302,170.17136 C244.255165,170.884585 244.371834,171.70056 244.530809,172.754707 L245.571454,179.50815 L245.614012,179.798981 C245.692309,180.354957 245.744947,180.855357 245.777624,181.300215 L245.804864,181.749529 L245.729595,181.686471 C244.55942,180.684306 243.288757,179.065697 242.546045,177.135968 C239.330116,168.78028 235.117873,160.233846 229.915379,151.492124 L197.68909,97.3424638 L216.15119,157.590869 C216.973852,160.275508 217.883612,163.749384 218.871494,167.99242 C221.766579,180.427049 220.054581,189.882949 215.36389,195.773022 C213.623273,197.958706 211.573151,199.466701 209.591895,200.189346 C208.177975,200.705059 207.09865,200.721823 206.631383,200.515963 C202.691877,198.780372 197.406773,191.132571 191.904428,177.598031 L183.37717,156.394998 L177.343368,177.802461 C174.801563,186.820585 171.742713,193.569846 168.303716,198.029267 L168.062649,198.339717 C167.616298,198.910532 167.190408,199.432797 166.786131,199.908589 L166.433949,200.315215 L166.699286,199.085608 L167.150584,197.04194 C168.276795,191.872513 168.443767,190.267232 167.896228,187.420915 C166.480522,180.061523 159.906915,177.725273 152.71448,180.024871 C143.065696,183.109825 135.362812,190.230332 129.118873,200.48126 C124.665399,207.792709 121.197074,216.171354 117.926441,226.459332 L117.629633,227.399886 C115.735811,233.445282 115.161526,238.791312 114.671692,250.121732 L114.547972,253.016505 L114.484755,254.349874 C114.332044,257.400609 114.141994,260.031455 113.895673,262.312019 L113.822641,262.961849 L113.792647,262.542971 C113.595984,259.706911 113.449944,256.499661 113.360268,252.934839 L112.575447,217.901097 L102.949537,239.818712 L102.95041,239.807125 C102.917834,238.034564 103.009368,236.177541 103.239154,234.255953 L103.331832,233.532371 C104.858531,222.352517 101.805934,214.168747 94.1992978,209.778697 C88.9361959,206.741181 83.2093977,206.064134 73.6197405,206.25367 L67.873778,206.393955 C64.3158664,206.464169 62.4634699,206.41936 60.5619242,206.210232 C55.3639111,205.638563 51.8471345,201.791905 49.6607678,192.870215 L34.7152633,131.883576 L34.7151905,178.607863 L34.6583511,178.577586 C29.9867042,176.190009 24.7976856,178.695613 23.3030767,183.392387 C22.8731767,184.743339 22.7775169,185.920376 22.8069976,187.511614 L22.8159271,187.886444 C22.8230849,188.136378 22.8333029,188.394971 22.8468093,188.673424 L22.9275414,190.052756 L23.0674287,192.182914 C23.1011124,192.73496 23.1251143,193.193653 23.1438291,193.651458 L23.1627782,194.179351 L23.1789478,194.945089 L23.1805826,195.280967 L23.1642403,195.250385 C22.6999852,194.368249 22.2315303,193.289822 21.8034187,192.026578 C17.9020865,180.514777 15.567486,169.271685 15.2090093,156.642421 C14.7341268,139.912141 17.9485511,122.608905 25.7481793,104.596949 C34.8539806,83.5686003 51.5739617,62.4547767 72.8833833,46.3558747 C97.313623,27.8992482 126.384966,16.8459919 158.276944,15.3339022 C189.849088,13.8369767 217.243457,22.240496 239.086859,38.4193425 Z" id="Path-Copy-2" fill="#000000" fill-rule="nonzero"></path>
                    <path d="M131.306029,76.3336613 L143.420598,116.654188 C144.321125,119.651384 145.200634,122.181035 146.041139,124.223883 L146.14168,124.466686 L146.190981,124.340047 C146.35022,123.923546 146.511617,123.484385 146.674601,123.022948 L146.969562,122.168387 C149.82606,113.703318 156.894509,110.932819 162.633546,114.941905 C164.391101,116.16967 168.7651,121.82374 169.853204,116.302154 C170.578606,112.621096 169.594032,104.857574 166.899481,93.0115856 C168.551525,95.4056238 170.792681,99.3412023 173.62295,104.818321 C178.06997,113.424166 180.531295,123.815054 179.241453,127.700015 C178.162384,130.950133 175.444226,133.502313 171.548391,133.655281 C169.135505,133.750022 167.38291,132.988273 165.609389,131.741298 C164.900491,131.242866 164.248262,130.697877 163.448623,129.967349 L162.501672,129.083091 C162.06577,128.672282 161.535607,128.172318 161.270091,127.925441 L161.083314,127.753353 L160.946993,128.145359 C159.444586,132.389584 157.853216,135.686374 156.025581,138.13532 L155.785842,138.449947 C152.562049,142.592761 148.057093,144.726789 143.04282,143.122586 C141.327201,142.573713 139.797752,141.667546 138.403318,140.387835 L138.092759,140.095412 L138.009651,140.233784 C134.096587,146.596824 128.228467,150.428296 120.394537,151.257857 L119.957296,151.300853 C109.855483,152.218462 100.476207,147.398659 91.7162444,137.504123 L91.2094255,136.924366 L91.1747257,136.957534 C88.0846323,139.791852 84.193991,141.444463 79.6021376,141.698242 L79.2178621,141.716147 C71.4943859,142.009523 64.7788758,138.862145 57.4026837,128.389198 C55.3881707,125.528931 52.9177368,122.868813 49.9913818,120.408845 C52.0897185,119.686329 56.3627877,120.614195 62.8105895,123.192442 C72.6100653,127.110904 75.0614585,126.699694 78.6422965,126.563676 C80.8202707,126.480946 82.0983861,125.300928 83.2713284,121.28662 L87.8738166,105.534945 L96.8850797,119.249729 C104.997145,131.595969 112.30475,136.770152 118.585559,136.199628 C124.364256,135.674713 127.711965,130.834731 128.562873,118.801961 L131.306029,76.3336613 Z" id="Path-2-Copy" fill="#000000" fill-rule="nonzero" transform="translate(114.787517, 113.872462) scale(-1, 1) rotate(19.000000) translate(-114.787517, -113.872462) "></path>
                    <path d="M201.916533,32.4042941 C218.860043,38.5514478 232.708833,46.8159426 243.723272,58.9252968" id="Path-3" stroke="#FFFFFF" stroke-width="10" stroke-linecap="round"></path>
                    <circle id="Oval" fill="#FFFFFF" cx="254.934641" cy="71.0784314" r="4.73856209"></circle>
                </g>
            </g>
        </g>
    </g>
</svg>